<svg width="216" height="214" viewBox="0 0 216 214" fill="none" xmlns="http://www.w3.org/2000/svg">
<path d="M108 3C166.016 3 213 49.5886 213 107C213 164.411 166.016 211 108 211C49.9837 211 3 164.411 3 107C3 49.5886 49.9837 3 108 3Z" stroke="url(#paint0_linear_24_2)" stroke-width="6"/>
<ellipse cx="108" cy="106" rx="96" ry="13" fill="#B0E1FF"/>
<path d="M14 110.5C60.5 129.5 166.5 121 201.5 110" stroke="#43ABE8" stroke-width="6"/>
<path d="M13.0298 107.348C13.0298 107.536 13.0298 107.724 13.058 108.621C13.0862 109.517 13.1427 111.117 13.6233 114.311C14.1039 117.505 15.007 122.247 15.9374 127.188" stroke="#43ABE8" stroke-width="2" stroke-linecap="round"/>
<path d="M13.2008 107.462C13.4078 107.575 13.6147 107.688 13.9283 107.878C14.2418 108.068 14.6558 108.331 15.1042 108.674C15.5526 109.016 16.0229 109.43 16.5075 109.857" stroke="#43ABE8" stroke-width="2" stroke-linecap="round"/>
<path d="M14.284 109.23C14.2276 109.756 14.1712 110.283 14.2173 111.053C14.2635 111.823 14.414 112.82 14.6797 113.898C14.9454 114.976 15.3217 116.105 15.6848 116.96C16.048 117.814 16.3866 118.36 16.8339 118.96C17.7826 120.235 18.5771 120.973 18.7775 120.975C18.8893 120.976 18.6204 120.525 18.1569 119.984C17.6934 119.442 16.9408 118.708 16.4214 118.133C15.902 117.557 15.6386 117.162 15.4841 117.768C15.3296 118.373 15.292 119.991 15.2914 120.862C15.2909 121.734 15.3285 121.809 15.4325 121.81C15.5366 121.811 15.7059 121.736 15.8214 121.565C16.0831 121.179 15.9573 120.39 15.796 119.131C15.6954 118.347 15.6911 117.252 15.7187 116.7C15.7464 116.147 15.8405 116.166 16.5192 116.777C17.1979 117.389 18.4585 118.593 19.5312 119.712C20.6038 120.831 21.4505 121.828 22.0654 122.332C22.6802 122.837 23.0377 122.818 23.0337 122.018C23.0297 121.218 22.6534 119.638 21.9798 118.325C21.3062 117.012 20.3467 116.015 19.6455 115.389C18.5988 114.453 18.0098 114.266 17.7732 114.341C17.6001 114.395 17.4425 114.716 17.6466 115.473C17.8507 116.23 18.4528 117.471 18.9417 118.271C19.4305 119.07 19.788 119.39 19.3795 118.765C18.971 118.139 17.7857 116.559 17.1375 115.717C16.4338 114.802 16.1107 114.685 15.7404 114.57C15.5974 114.526 15.5394 114.532 15.7361 114.739C15.9328 114.946 16.3844 115.36 17.3695 116.071C18.3547 116.783 19.8598 117.78 21.1902 118.52C22.5206 119.259 23.6306 119.711 24.3342 119.972C25.2883 120.325 25.9864 120.347 26.7264 120.309C27.7439 120.258 28.2691 119.739 28.5072 119.635C28.5833 119.602 28.463 119.475 27.408 119.05C26.353 118.625 24.3399 117.873 23.2746 117.476C22.2093 117.078 22.1529 117.06 22.2085 117.088C22.264 117.116 22.4334 117.191 22.7218 117.382" stroke="#43ABE8" stroke-width="2" stroke-linecap="round"/>
<path d="M203.109 106.949C203.09 107.382 203.071 107.815 202.798 110.314C202.525 112.813 201.998 117.366 201.642 120.032C201.286 122.697 201.117 123.337 200.942 124.053" stroke="#43ABE8" stroke-width="2" stroke-linecap="round"/>
<path d="M203.052 106.835C202.751 106.892 202.45 106.948 200.874 107.56C199.298 108.173 196.458 109.339 194.956 109.949C193.455 110.56 193.38 110.579 193.302 110.598" stroke="#43ABE8" stroke-width="2" stroke-linecap="round"/>
<path d="M201.455 108.374C201.192 108.487 200.755 108.715 200.468 108.924C200.18 109.135 201.528 108.585 201.825 108.846C202.165 109.144 201.275 110.386 200.891 111.738C200.508 113.09 200.244 114.671 200.09 115.532C199.935 116.393 199.898 116.487 200.104 115.68C200.31 114.872 200.762 113.16 200.948 112.363C201.133 111.565 201.039 111.735 200.859 112.368C200.679 113 200.415 114.092 200.327 115.124C200.238 116.157 200.332 117.097 200.362 117.695C200.391 118.292 200.354 118.518 199.648 118.587C198.942 118.657 197.568 118.562 195.45 118.599C193.331 118.635 190.509 118.804 188.801 118.92C187.093 119.035 186.585 119.092 185.477 119.102C184.369 119.112 182.675 119.074 181.577 119.017C180.479 118.96 180.028 118.885 179.297 118.837C178.565 118.789 177.568 118.77 176.659 118.817C175.751 118.864 174.961 118.976 174.459 119.035C173.958 119.093 173.77 119.093 173.748 119.027C173.727 118.961 173.877 118.829 174.049 118.733C174.22 118.637 174.409 118.581 175.531 118.439C176.653 118.297 178.704 118.071 182.714 117.842C186.724 117.613 192.632 117.387 195.675 117.129C198.719 116.872 198.719 116.59 198.775 116.115C198.832 115.641 198.944 114.982 198.908 114.662C198.873 114.341 198.684 114.379 198.117 114.577C197.55 114.775 196.609 115.133 195.739 115.373C194.869 115.614 194.097 115.727 193.023 115.813C191.948 115.899 190.593 115.956 189.867 115.994C189.141 116.033 189.085 116.052 188.97 116.128" stroke="#43ABE8" stroke-width="2" stroke-linecap="round"/>
<path d="M196.78 115.615C196.856 115.615 197.402 116.104 198.341 116.977C198.772 117.361 199.111 117.624 199.398 117.807C199.686 117.99 199.911 118.084 200.201 118.181" stroke="#43ABE8" stroke-width="2" stroke-linecap="round"/>
<path d="M13.4299 107.097C13.4224 107.089 13.3696 107.07 13.2634 107.004C13.1077 106.907 13.0386 106.736 12.9721 106.667C12.9015 106.595 12.8522 106.53 12.8007 106.46C12.7546 106.397 12.7 106.367 12.6543 106.334C12.6342 106.32 12.6048 106.306 12.5801 106.315C12.5667 106.403 12.5516 106.526 12.5363 106.741C12.5324 106.9 12.5362 107.16 12.54 107.428" stroke="#43ABE8" stroke-linecap="round"/>
<path d="M27.4006 117.733C27.4436 117.733 27.4866 117.733 28.1106 117.926C28.7345 118.12 29.9382 118.507 30.6227 118.727C31.4366 118.99 31.9344 119.078 32.3483 119.197C32.6317 119.279 31.2278 119.534 29.9935 119.589C29.3616 119.617 28.7163 119.579 28.3734 119.503C28.0305 119.428 28.009 119.299 28.1591 119.125C28.3092 118.951 28.6316 118.736 28.9482 118.657C29.2647 118.579 29.5656 118.643 29.8603 118.752C30.155 118.86 30.4345 119.011 30.2667 119.077C30.099 119.144 29.4757 119.123 30.2723 119.015C31.0688 118.907 33.3041 118.714 34.2622 118.678C35.2203 118.643 34.8334 118.772 34.4514 118.839C33.704 118.905 33.1986 118.97 32.971 119.078C32.8723 119.122 32.8078 119.144 32.6763 119.166" stroke="#43ABE8" stroke-linecap="round"/>
<path d="M188.206 116.219C188.049 116.308 187.893 116.398 187.259 116.505C186.625 116.613 185.519 116.736 183.267 117.039C181.015 117.343 177.652 117.823 175.779 118.116C173.907 118.408 173.628 118.497 173.444 118.566C173.035 118.719 172.822 118.86 172.41 118.99C172.28 119.04 172.135 119.118 172.021 119.175C171.907 119.232 171.829 119.266 171.714 119.334" stroke="#43ABE8" stroke-linecap="round"/>
<ellipse cx="108" cy="110.5" rx="95" ry="91.5" fill="url(#paint1_linear_24_2)"/>
<path d="M108 22C128.106 22 146.276 22.9498 159.388 24.4766C165.957 25.2415 171.185 26.1434 174.732 27.1201C176.485 27.6026 177.717 28.0754 178.479 28.5C177.717 28.9246 176.485 29.3974 174.732 29.8799C171.185 30.8566 165.957 31.7585 159.388 32.5234C146.276 34.0502 128.106 35 108 35C87.8938 35 69.7245 34.0502 56.6123 32.5234C50.0429 31.7585 44.8155 30.8566 41.2676 29.8799C39.5143 29.3972 38.2818 28.9247 37.5195 28.5C38.2818 28.0753 39.5143 27.6028 41.2676 27.1201C44.8155 26.1434 50.0429 25.2415 56.6123 24.4766C69.7245 22.9498 87.8938 22 108 22Z" stroke="black" stroke-width="4"/>
<defs>
<linearGradient id="paint0_linear_24_2" x1="108" y1="0" x2="108" y2="214" gradientUnits="userSpaceOnUse">
<stop offset="0.129708" stop-opacity="0"/>
<stop offset="0.129808"/>
</linearGradient>
<linearGradient id="paint1_linear_24_2" x1="108" y1="19" x2="108" y2="202" gradientUnits="userSpaceOnUse">
<stop offset="0.548077" stop-color="#D9D9D9" stop-opacity="0"/>
<stop offset="0.548177" stop-color="#43ABE8"/>
</linearGradient>
</defs>
</svg>
